<svg width="182" height="49" fill="none" xmlns="http://www.w3.org/2000/svg"><path d="M22.913 27.89c-.172 2.379-1.052 4.25-2.641 5.617-1.579 1.366-3.664 2.05-6.254 2.05-2.834 0-5.065-.952-6.695-2.855-1.619-1.912-2.428-4.533-2.428-7.863v-1.35c0-2.126.374-3.998 1.123-5.617.749-1.62 1.816-2.859 3.203-3.72 1.396-.87 3.016-1.305 4.857-1.305 2.55 0 4.605.683 6.163 2.05 1.559 1.366 2.46 3.283 2.702 5.753H18.39c-.112-1.427-.512-2.46-1.2-3.097-.678-.648-1.715-.971-3.112-.971-1.518 0-2.656.546-3.415 1.639-.749 1.083-1.133 2.768-1.154 5.055v1.67c0 2.388.36 4.134 1.078 5.237.729 1.103 1.872 1.654 3.43 1.654 1.407 0 2.455-.319 3.143-.956.698-.648 1.098-1.645 1.2-2.99h4.553zm22.506-2.216h-8.744v5.92h10.262v3.659H32.12V13.15h14.785v3.689h-10.23v5.267h8.743v3.567zm22.885 5.025h-7.985l-1.518 4.554H53.96l8.227-22.102h4.22l8.273 22.102h-4.842l-1.533-4.554zm-6.755-3.689h5.525l-2.778-8.273-2.747 8.273zm36.228-10.17h-6.77v18.413h-4.554V16.84h-6.68v-3.69h18.004v3.69zm26.816 18.413h-4.554V25.78h-8.88v9.473h-4.554V13.15h4.554v8.956h8.88V13.15h4.554v22.102zm23.508-9.579h-8.744v5.92h10.262v3.659h-14.816V13.15h14.785v3.689h-10.231v5.267h8.744v3.567zm21.868 3.78c0-.86-.304-1.518-.911-1.973-.607-.466-1.7-.952-3.279-1.458-1.578-.516-2.828-1.022-3.749-1.518-2.51-1.356-3.765-3.182-3.765-5.48 0-1.194.334-2.256 1.002-3.187.678-.941 1.645-1.675 2.899-2.201 1.265-.527 2.682-.79 4.251-.79 1.578 0 2.985.289 4.22.866 1.234.566 2.191 1.37 2.869 2.413.688 1.043 1.032 2.226 1.032 3.552h-4.554c0-1.012-.319-1.796-.956-2.353-.638-.566-1.533-.85-2.687-.85-1.113 0-1.979.238-2.596.714-.617.465-.926 1.083-.926 1.852 0 .718.359 1.32 1.078 1.806.729.486 1.796.941 3.203 1.366 2.591.78 4.478 1.746 5.662 2.9 1.184 1.153 1.776 2.59 1.776 4.31 0 1.913-.724 3.416-2.171 4.51-1.447 1.082-3.395 1.623-5.844 1.623-1.7 0-3.248-.308-4.645-.926-1.397-.627-2.464-1.482-3.203-2.565-.729-1.083-1.093-2.338-1.093-3.765h4.569c0 2.44 1.457 3.659 4.372 3.659 1.083 0 1.928-.218 2.535-.653.607-.445.911-1.063.911-1.852zM.258.834h180.978v2.22H.258V.834zm0 45.522h180.978v2.22H.258v-2.22z" fill="#83898F"/></svg>